# xmcd
#
# Track frame offsets:
#	150
#	31804
#	56731
#	83709
#	100992
#	119595
#	144690
#	167010
#	187999
#	214677
#	237558
#
# Disc length: 3494 seconds
#
# Revision: 1
# Processed by: cddbd v1.4PL0 Copyright (c) Steve Scherf et al.
# Submitted via: CDmax 1.9
#
DISCID=990da40b
DTITLE=Stephen Bruton - Spirit World
DYEAR=2002
DGENRE=Blues
TTITLE0=Yo Yo
TTITLE1=Teach Me How To Stay
TTITLE2=Longshot, Longshadow
TTITLE3=Acre Of Snakes
TTITLE4=Just A Dream
TTITLE5=Spirit World
TTITLE6=Make That Call
TTITLE7=Hate To Love
TTITLE8=Liar Out Of You
TTITLE9=Book Of Dreams
TTITLE10=The Best Is Yet To Come
EXTD=
EXTT0=
EXTT1=
EXTT2=
EXTT3=
EXTT4=
EXTT5=
EXTT6=
EXTT7=
EXTT8=
EXTT9=
EXTT10=
PLAYORDER=
